<?xml version="1.0" encoding="iso-8859-1"?>
<!-- Generator: Adobe Illustrator 19.0.0, SVG Export Plug-In . SVG Version: 6.00 Build 0)  -->
<svg xmlns="http://www.w3.org/2000/svg" xmlns:xlink="http://www.w3.org/1999/xlink" version="1.1" id="Capa_1" x="0px" y="0px" viewBox="0 0 512 512" style="enable-background:new 0 0 512 512;" xml:space="preserve">
<g>
	<g>
		<path d="M271.011,386.243v62.768h-29.995v-62.768c-25.188-2.652-48.955-12.082-69.16-27.256    c17.334,54.408,20.498,99.926,20.498,153.013h127.318c0-54.431,3.452-99.505,20.498-153.013    C320.002,374.134,296.242,383.587,271.011,386.243z" fill="#ee394e"/>
	</g>
</g>
<g>
	<g>
		<path d="M456.321,189.067c-8.292-4.323-4.801,0.501-4.801-13.513c0-40.29-35.015-71.819-75.334-67.309    c-5.001,0.56-1.102,2.433-5.319-16.338C351.625,6.31,247.652-29.487,179.901,28.009c-41.992,35.64-40.045,79.012-41.184,80.558    c-1.462-0.648-47.174-7.382-70.033,34.698c-7.189,13.235-9.673,28.348-7.306,43.099c-48.082,20.788-67.286,79.609-39.844,124.771    c33.312,54.831,112.006,55.588,146.85,2.645c43.472,56.623,128.239,57.887,173.327,2.448c4.713-5.794-0.615,1.037,20.656,17.981    c54.581,43.256,135.203,7.478,140.447-61.422C505.491,237.622,486.874,205,456.321,189.067z" fill="#ee394e"/>
	</g>
</g>
<g>
</g>
<g>
</g>
<g>
</g>
<g>
</g>
<g>
</g>
<g>
</g>
<g>
</g>
<g>
</g>
<g>
</g>
<g>
</g>
<g>
</g>
<g>
</g>
<g>
</g>
<g>
</g>
<g>
</g>
</svg>
