<?xml version="1.0" encoding="iso-8859-1"?>
<!-- Generator: Adobe Illustrator 19.0.0, SVG Export Plug-In . SVG Version: 6.00 Build 0)  -->
<svg xmlns="http://www.w3.org/2000/svg" xmlns:xlink="http://www.w3.org/1999/xlink" version="1.1" id="Capa_1" x="0px" y="0px" viewBox="0 0 512 512" style="enable-background:new 0 0 512 512;" xml:space="preserve">
<g>
	<g>
		<path d="M241.029,422.933c0-17.162,0-298.538,0-315.862C220.245,147.337,87.868,269.773,241.029,422.933z" fill="#ee394e"/>
	</g>
</g>
<g>
	<g>
		<path d="M270.987,107.072v315.862C419.892,267.424,301.51,166.203,270.987,107.072z" fill="#ee394e"/>
	</g>
</g>
<g>
	<g>
		<path d="M418.872,179.891c-14.4-28.58-37.618-53.975-75.296-82.356c-46.685-35.181-44.538-78.411-44.359-81.038l1.698-16.267    h-29.679c6.755,38.165,14.916,81.477,38.646,112.784c91.645,120.887,83.711,221.193-11.384,324.38    c-3.699,4.038,1.615,1.92-29.429,7.829c4.128,8.751,11.526,24.468,28.67,60.876l27.102-12.772L299.498,439.5    C413.945,416.692,474.331,289.979,418.872,179.891z" fill="#ee394e"/>
	</g>
</g>
<g>
	<g>
		<g>
			<path d="M268.788,445.273C268.788,445.273,268.788,445.273,268.788,445.273C268.788,445.251,268.788,445.248,268.788,445.273z" fill="#ee394e"/>
			<path d="M268.509,457.021C268.509,457.036,268.509,457.035,268.509,457.021L268.509,457.021z" fill="#ee394e"/>
			<path d="M241.029,444.863c-29.483-5.366-23.663-3.182-30.558-10.805c-90.312-99.976-100.686-199.231-8.338-321.045     c23.726-31.3,31.914-74.746,38.646-112.784c-16.427,0-9.715,0.046-29.699-0.23l1.718,16.497     c0.18,2.626,2.327,45.856-44.359,81.038c-37.678,28.381-60.896,53.775-75.296,82.356     c-49.818,98.889-9.819,223.443,113.303,258.282c2.041,0.575,5.218-6.19-32.235,58.888L200.175,512     c47.007-81.671,38.797-72.987,38.287-51.858l-0.839,34.682l29.948,0.729c0.94-38.996,1.201-49.775,1.216-50.28     C252.739,448.149,258.316,448.049,241.029,444.863z" fill="#ee394e"/>
			<path d="M268.79,445.273c-0.001,0-0.001,0-0.002,0c-0.006,0.317-0.122,5.206-0.203,8.581     C268.629,451.998,268.696,449.228,268.79,445.273z" fill="#ee394e"/>
			<path d="M268.585,453.854c-0.051,2.142-0.073,3.062-0.076,3.167C268.513,456.886,268.544,455.566,268.585,453.854z" fill="#ee394e"/>
		</g>
	</g>
</g>
<g>
</g>
<g>
</g>
<g>
</g>
<g>
</g>
<g>
</g>
<g>
</g>
<g>
</g>
<g>
</g>
<g>
</g>
<g>
</g>
<g>
</g>
<g>
</g>
<g>
</g>
<g>
</g>
<g>
</g>
</svg>
