<?xml version="1.0" encoding="iso-8859-1"?>
<!-- Generator: Adobe Illustrator 19.0.0, SVG Export Plug-In . SVG Version: 6.00 Build 0)  -->
<svg xmlns="http://www.w3.org/2000/svg" xmlns:xlink="http://www.w3.org/1999/xlink" version="1.1" id="Capa_1" x="0px" y="0px" viewBox="0 0 512 512" style="enable-background:new 0 0 512 512;" xml:space="preserve">
<g>
	<g>
		<path d="M475.816,70.976c17.593,139.464-84.289,221.011-214.748,347.937c4.025,46.522,24.313,71.869,54.577,92.463    c86.358-33.414,101.929-107.295,151.636-246.539C491.839,195.866,509.834,135.476,475.816,70.976z" fill="#ee394e"/>
	</g>
</g>
<g>
	<g>
		<path d="M147.846,346.268c-25.17,0-25.176,38.057,0,38.057C173.036,384.324,173.028,346.268,147.846,346.268z" fill="#ee394e"/>
	</g>
</g>
<g>
	<g>
		<path d="M308.638,191.123c-25.17,0-25.176,38.057,0,38.057C333.835,229.179,333.779,191.123,308.638,191.123z" fill="#ee394e"/>
	</g>
</g>
<g>
	<g>
		<path d="M228.778,270.354c-25.17,0-25.176,38.057,0,38.057C253.946,308.411,253.953,270.354,228.778,270.354z" fill="#ee394e"/>
	</g>
</g>
<g>
	<g>
		<path d="M446.663,80.071C444.015,53.089,436.225,25.437,423.767,0c-0.148,0.134-316.97,287.313-325.55,295.089    C41.352,346.637-10.097,436.352,34.056,511.766c17.116,1.369,50.247-3.187,81.5-16.15    c43.344-18.021,64.468-38.033,166.108-139.035C382.641,256.507,457.753,192.238,446.663,80.071z M147.846,414.306    c-27.023,0-49.01-21.987-49.01-49.01s21.987-49.01,49.01-49.01c27.033,0,49.02,21.987,49.02,49.01    C196.867,392.319,174.881,414.306,147.846,414.306z M228.778,338.392c-27.023,0-49.01-21.987-49.01-49.01    s21.987-49.01,49.01-49.01c27.023,0,49.01,21.987,49.01,49.01C277.787,316.406,255.8,338.392,228.778,338.392z M303.341,258.881    c-24.545-2.648-43.713-23.496-43.713-48.73c0-27.023,21.987-49.01,49.01-49.01c27.01,0,49.01,21.983,49.01,49.01    C357.648,238.71,333.012,261.949,303.341,258.881z" fill="#ee394e"/>
	</g>
</g>
<g>
</g>
<g>
</g>
<g>
</g>
<g>
</g>
<g>
</g>
<g>
</g>
<g>
</g>
<g>
</g>
<g>
</g>
<g>
</g>
<g>
</g>
<g>
</g>
<g>
</g>
<g>
</g>
<g>
</g>
</svg>
