<?xml version="1.0" encoding="iso-8859-1"?>
<!-- Generator: Adobe Illustrator 19.0.0, SVG Export Plug-In . SVG Version: 6.00 Build 0)  -->
<svg xmlns="http://www.w3.org/2000/svg" xmlns:xlink="http://www.w3.org/1999/xlink" version="1.1" id="Capa_1" x="0px" y="0px" viewBox="0 0 511.999 511.999" style="enable-background:new 0 0 511.999 511.999;" xml:space="preserve">
<g>
	<g>
		<path d="M334.504,130.096c-26.318-8.682-130.673-8.682-156.991,0C81.159,161.883,45.424,289.53,106.14,369.728    c25.751,34.015,68.201,52.996,86.347,93.219c29.418,65.206,97.447,65.602,127.043,0c18.147-40.223,60.596-59.205,86.347-93.219    C466.402,289.784,431.158,161.982,334.504,130.096z M129.621,216.699h30.013v30.013h-30.013V216.699z M174.64,347.422h-30.013    v-30.013h30.013V347.422z M203.986,174.013h30.013v30.013h-30.013V174.013z M193.649,286.062v-30.013h30.013v30.013H193.649z     M243.337,377.435h-30.013v-30.013h30.013V377.435z M276.018,456.804h-30.013v-30.013h30.013V456.804z M296.026,308.905h-30.013    v-30.013h30.013V308.905z M276.018,225.035v-30.013h30.013v30.013H276.018z M336.044,370.432h-30.013v-30.013h30.013V370.432z     M338.712,204.026v-30.013h30.013v30.013H338.712z M383.732,278.892h-30.013v-30.013h30.013V278.892z" fill="#ee394e"/>
	</g>
</g>
<g>
	<g>
		<path d="M413.53,76.242c-17.402-8.523-36.655-12.98-64.792-2.438C352.579,42.71,344.841,23.51,331.156,0    c-35.047,3.703-59.219,19.913-75.147,47.49C240.087,19.922,215.918,3.704,180.862,0c-13.189,22.658-21.517,41.941-17.581,73.803    c-28.069-10.517-47.837-5.866-64.791,2.439c-3.152,21.832-4.232,40.881,6.262,63.219c49.463-46.657,108.353-50.92,176.525-47.381    c49.036,2.546,87.067,10.67,125.991,47.381C418.319,115.938,416.294,95.389,413.53,76.242z" fill="#ee394e"/>
	</g>
</g>
<g>
</g>
<g>
</g>
<g>
</g>
<g>
</g>
<g>
</g>
<g>
</g>
<g>
</g>
<g>
</g>
<g>
</g>
<g>
</g>
<g>
</g>
<g>
</g>
<g>
</g>
<g>
</g>
<g>
</g>
</svg>
